<svg xmlns="http://www.w3.org/2000/svg" viewBox="0 0 406.58 455.19"><defs><style>.cls-1{fill:#2e2b64;}.cls-2{fill:#c02f54;}.cls-3{fill:#2b2960;}.cls-4{fill:#fff;}</style></defs><title>logo cognitivo</title><g id="Capa_1" data-name="Capa 1"><path id="_Trazado_" data-name="&lt;Trazado&gt;" class="cls-1" d="M228.62,100.21S250,67.21,273,78.88s24,42.33,8.33,67c0,0,28.67,33.67-6,62.67,0,0,30,27.33,8.33,59a34,34,0,0,0-25.67,0s-5.33-8.33-18-5c0,0-7.67-31.32-40.33-24.66,0,0-2.33-10-3.67-14.34,0,0,10.33.67,21-8.67,0,0,12.67,17.67,32,6.33,0,0,10,15.33,15,14l2.67-6.67s-24.67-16-2.33-37l-4-6.33s-14.67,9.33-13,27c0,0-13.33,13.67-25.33-4.33,0,0,4.67-5.67,2-17,0,0,18-7,10.33-33.33,0,0,26,2.67,28.67-26.67,0,0,12.33-.67,18-17.33l-8-1.67s-10,23.67-31.67,3.33l-6,5s5.33,9.67,19,11c0,0,3,5-4.67,13,0,0-12.33,12.67-35.33-1.33,0,0-20.67-12.33-11-35.67C203.29,107.21,215.62,93.21,228.62,100.21Z" transform="translate(-94.46 -73.27)"/><path class="cls-1" d="M193.62,127.55s-35,1.67-14,42.33c0,0-45.67,4-24,45.33,0,0,15.67-9.33,36.33,0,0,0,37-3,20.33-28,0,0,26-4,11.33-30.33C223.62,156.88,200.29,149.21,193.62,127.55Z" transform="translate(-94.46 -73.27)"/><path class="cls-1" d="M188.95,250.21c-.14.73,34-19.33,41.67,15.33,0,0-10.33,7.33-9,20.33,0,0-18,8.33-13.67,32,0,0,8,17.67,26.67,19.67,0,0-2.33,11,18.67,24.67l3.67-8.33s-33-20.33,1.67-38.67v-7.33s-21.33,3.33-24.33,20.67c0,0-18-1.33-18.33-17.67,0,0-2.67-10.33,15-20.33-1,.55.35-12.68,1-13.9,6.12-11.45,19.32-5.16,26.66,1.24,0,0,18.6-16.67,33.8,11,0,0,6.87,23.33-11.13,41,0,0,16.93,15,11.13,42.33,0,0-7.13,16.67-23.13,17.33,0,0-17.2-1-25.1-12.33,0,0-17.23,5.33-28.57-1,0,0-10.67-6.33-8.67-29,0,0-19,4-28-7,0,0-13.67-15.67-5.67-33.33,0,0-26.67-9-30.67-39.33S157,223.88,157,223.88,197.94,204.21,188.95,250.21Z" transform="translate(-94.46 -73.27)"/><path class="cls-2" d="M325,152.88s22,5.67,24.33-16H356s4.67,6.33-7,18.67c0,0,10.67,14.33,25,7.33s6.67-26,6.67-26S401,128.55,394,111.21s-30.33-11.33-30.33-11.33,0-13.33-21-23.5S302,84.21,302,84.21s-10,10,16.67,38.67c0,0-41.67,21.67.33,54,0,0-38.33,27.67-5,56.33,0,0,6.33-6.67,17-4,0,0,.67-29,23-31,0,0-4.67-8.83,5.33-26.25,0,0-10.67-1.42-18-12.75,0,0-11.67,7.67-20,0Z" transform="translate(-94.46 -73.27)"/><path class="cls-2" d="M390.62,139.88s9.67-4.67,11-12.33c0,0,34.67,4,14,41.33,0,0,31.33,4.67,31,31.33,0,0,1,21-22.67,23,0,0-6.33,20.33-26.33,17.67s-15-28.33-15-28.33-20.33-4.67-21-19.67S371,172,371,172,393.62,166.88,390.62,139.88Z" transform="translate(-94.46 -73.27)"/><path class="cls-2" d="M357,205.19s-19.67,5-18,25.33c0,0,39,12.33,15,53.67,0,0,27.67,19.33,4,53,0,0,8.27,7.33,3.63,22.33l-7-2.67s5.33-25.33-24-17l-3-7.33s17-4.67,23.67,0c0,0,22.33-28-10-45,0,0,31.67-35.32-8-49.66,0,0-14-4-27.33,12.32,0,0-15,32,12.33,53,0,0-37,18.67-2.67,52.33,0,0-7,16.67,7.33,29s34.33-7.67,34.33-7.67,17.67,9.33,30.33-3S392,346.19,392,346.19s19,7.33,30.67-9,1.67-30.67,1.67-30.67,26.67-8.67,29-32c0,0,9.33-27.33-10.67-48.33,0,0-7.33,5.67-12.67,4.33,0,0-10.67,22-30,18.33a24.13,24.13,0,0,0,1.67,23.33s15.33-6.33,26.67,3l-4,6.33s-31.07-16.18-28.87,23.08h-7.8s-4.4-15.74,7.8-28.08c0,0-6.8-4.33-3.47-29.33,0,0-18-4.36-17.67-27.51C374.38,219.68,366.38,218.19,357,205.19Z" transform="translate(-94.46 -73.27)"/><path class="cls-3" d="M215.17,453.59l5.44,5.62.88-7.55-3.61-4.39c-1.1-1.34,7.66-9.44,8.77-10.38,3.61-3,7.63-5.49,12.56-4.19,0,0,1.05-.18,3.16,3,0,0,.18,1.4,3.69.88,0,0,5.26-1.75,5.26,2.63,0,0,1.93,10.18-1.93,20l-1.58,18.43s6.49-2.11,16.14-18.25l1.05,3.33s-1.05,10.35-.7,10.88a30.13,30.13,0,0,1-9.48,9.3l-5.44,3.33s-3,1.16-3,5.4c0,0-1.4,16.88-2.81,20,0,0-2.28,11.58-11.93,15.62-4.78,2-11,1.48-15-2-4.82-4.27-4-10.9-1.53-16.21,0,0,4-9.3,9.65-14.92,0,0,7.19-8.95,10.7-11.23l.88-6s-7.37,7.55-14.74,4.91a15.28,15.28,0,0,1-9.6-12.06C211.09,464.1,213.47,458.9,215.17,453.59Z" transform="translate(-94.46 -73.27)"/><path class="cls-4" d="M235.79,494.67s-4.65,1.76-10.11,13.26a54.18,54.18,0,0,0-2.14,5c-.49,1.37-1.34,3.1-.8,4.56a2.64,2.64,0,0,0,2.9,1.52,7.17,7.17,0,0,0,4.43-3c3.66-4.9,4.57-10.86,5.15-16.77C235.28,498.66,235.4,494.82,235.79,494.67Z" transform="translate(-94.46 -73.27)"/></g><g id="Capa_3" data-name="Capa 3"><g id="Capa_2" data-name="Capa 2"><path class="cls-3" d="M268.87,438.5,265,461.84l1.93,8.6-2.63,3.16c-.68.82,1.47,5.59,2.08,6.38A6.52,6.52,0,0,0,274,481.5c2.49-1.31,3.5-4.86,4.43-7.29a83.49,83.49,0,0,1,3.64-7.72c2-4.06,4-8.19,6.15-12.19,0,0,2.28-4.21,2.11,0a42.42,42.42,0,0,0-1.58,14.21,30.63,30.63,0,0,0,1.7,9.73,7.22,7.22,0,0,0,1.75,2.86c2.34,2.11,7.2.19,9.71-.69l10.35-4.7s3,11,17.37,4.7c0,0,6.49-1.72,14.39-9.09v-9.48a88.77,88.77,0,0,1-14.21,10.58c-4.25,2.44-5.17-3-4.81-5.81a104.94,104.94,0,0,1,5.31-22.39c.72-2,4.3-11.3-.32-11.16-3,.09-6.19-.19-8.65,2-2.07,1.81-2.39,5-3.08,7.51-1.67,6.67-5.13,14.35-5.13,21.41v.88l-8.95,5.62s-5.45,3.51-6.5-3.68c-.49-3.38.83-7.92,1.27-11.27q.8-6,1.77-12c.66-4.05,1.21-8.12-3.26-10.14-4.2-1.9-7.7,1.44-9.77,4.85,0,0-6.32,10-7.19,14.39,0,0-1.23,4.74-2.81,1.4q.79-6,1.63-12l-.19,1.19c.62-3.81,2.19-9.26-3.19-10.39C275.89,432.71,270,431.93,268.87,438.5Z" transform="translate(-94.46 -73.27)"/><path class="cls-3" d="M344,436s-3.51,22.64,3.69,38.78c0,0,5.44,12.81,19.65,4.56l11.06-5.79s1.05,8.52,7.19,8.56c0,0,10.35,1.87,22.29-9.31,0,0,1.4,11.4,9.48,9.5,0,0,4.91-.68,12.81-17.17,0,0,3,14,20.18,7.55,0,0,2.93,3.81,3.15,4a16.66,16.66,0,0,0,9.37,5.16c8.63,1.23,16.12-5.93,19.28-13.33a31,31,0,0,0,2.52-11.44,32.46,32.46,0,0,0-.59-6.78c-.29-1.51-1-6.81-2.31-7.65a88.84,88.84,0,0,1,18.07,15.62l1.24-7s-17.73-27.2-40.72-15.27c0,0-13.51,5.62-11.76,26.32,0,0-9.48,5.23-11.41-4.58-1.23-6.24,4.5-13.31,6.41-18.87.56-1.63.89-3.64-.27-4.91a4.29,4.29,0,0,0-1.83-1.07c-4.41-1.5-8.22-.31-10.27,3.8L418.38,469s-1.4,2.28-.35-5.09c1.18-8.28,1-17,1.58-25.37a10.42,10.42,0,0,0-.12-3.29,3.52,3.52,0,0,0-2-2.49,5.23,5.23,0,0,0-2.63-.07l-4.47.66c-4.82.71-3.81,11.34-3.77,14.58l1.05,15.27s-8.6,9.65-15.27,9.13c0,0-3.16-1.23,0-13.86,1.45-5.79,2.7-11.64,4.63-17.29,1.09-3.2,2.72-8.42-2.52-8.53-3.31-.07-7.2,1.93-8.72,4.94-1.78,3.53-2.26,8.44-3.28,12.31-.94,3.54-1.92,7.08-2.71,10.66-.11.52-.19.89-.21,1.08-.18,1.75-16,12.28-21.94,8.6,0,0-6.84-.18-2.63-26l5.09-6.84,11.8-.21c2.45,0,7.24.95,9.32-.59a4.58,4.58,0,0,0,1.38-3.37,4.09,4.09,0,0,0-.41-2.77,3.52,3.52,0,0,0-3.15-1.12c-4.48.26-9,.06-13.49,0,0,0,12.81-14.57,8.25-28.78,0,0-2.46-9.83-9.65-7.81,0,0-9.3,2.19-15.44,22.37l-3.33,12.63s-13-1.05-14.57,1.05c0,0-2.11,4.74,4.21,5.26Z" transform="translate(-94.46 -73.27)"/><path class="cls-3" d="M322,419.91a7.53,7.53,0,0,0,2.8,5.28,8.78,8.78,0,0,0,4.35,1.65,10,10,0,0,0,7.49-2.13c3.15-2.63,4.49-8.72,1.32-11.84-4-3.92-12.55-2.21-15.1,2.52A7.93,7.93,0,0,0,322,419.91Z" transform="translate(-94.46 -73.27)"/><path class="cls-3" d="M388.12,419.91a7.53,7.53,0,0,0,2.8,5.28,8.78,8.78,0,0,0,4.35,1.65,10,10,0,0,0,7.49-2.13c3.15-2.63,4.49-8.72,1.32-11.84-4-3.92-12.55-2.21-15.1,2.52A7.93,7.93,0,0,0,388.12,419.91Z" transform="translate(-94.46 -73.27)"/></g><path class="cls-4" d="M239.93,442.43c0-.27-1.77-.18-1.88-.17-2,.25-3.85,1.83-5.21,3.25-4.77,5-8.56,11.77-8.73,18.78-.07,2.76.25,5.84,2.45,7.77,2.35,2.07,4.68.66,6.34-1.57C232.91,470.49,236.95,466.31,239.93,442.43Z" transform="translate(-94.46 -73.27)"/><path class="cls-3" d="M132.34,433.76s-2.81-1.93-3.86,1.4v5.62s.53,3.51,2.81,3.69c0,0,6.14,2.81,15.09-1.4,0,0,11.41-5.09,16-16,0,0,7-11.58,1.05-23.87-3.86-7.95-13.79-11.52-22-10.19-18.1,2.93-30.71,18.22-38.64,33.69-1.15,2.24-2.29,4.52-3.23,6.85,0,0-11.41,28.25,0,44.75,13,18.77,39.16,15.24,56.19,4.35a56.71,56.71,0,0,0,5.93-4.35l8.42-7.55s4,9.65,11.58,10.88c0,0,8.77,3.16,17-6.32a30.13,30.13,0,0,0,6.49-21.23s-1.05-9-3.33-11.86c0,0,11.23,7.3,13.34,11.34l2.71-6.32s-7.44-11.76-24.12-14.39c0,0-13.51-1.93-22.11,12.28a37.34,37.34,0,0,0-3,13.86l-16.14,11.58s-10.7,7.37-18.78,8.77c0,0-13.34,4-20.71-4.56,0,0-6.32-5.79-3.69-24,0,0,1.05-11.06,8.95-25.8,0,0,5.09-9.13,11.41-14.74,0,0,8.42-8.95,19-5.62,0,0,8.42,3.16,6,13.86C152.3,428.66,142.77,435.92,132.34,433.76Z" transform="translate(-94.46 -73.27)"/><path class="cls-4" d="M183.09,448.16c2.68-4.33,8-8.34,11-2.16a26.85,26.85,0,0,1-1.05,19.65s-3,7.19-7.89,6.49C175.38,470.77,179.76,453.52,183.09,448.16Z" transform="translate(-94.46 -73.27)"/><path class="cls-4" d="M354.17,428.37h3.51c.91,0,3.67-6,4.05-6.7a42.78,42.78,0,0,0,4.93-13.22c.7-4.24-2.66-6.25-5.12-2.37C361.54,406.08,358.38,410.65,354.17,428.37Z" transform="translate(-94.46 -73.27)"/><path class="cls-4" d="M463,448.6c2.68-4.33,8-8.34,11-2.16A26.85,26.85,0,0,1,473,466.1s-3,7.19-7.89,6.49C455.29,471.2,459.68,454,463,448.6Z" transform="translate(-94.46 -73.27)"/></g></svg>