<svg id="Capa_1" data-name="Capa 1" xmlns="http://www.w3.org/2000/svg" viewBox="0 0 770.58 216.4"><defs><style>.cls-1{fill:#2e2b64;}.cls-2{fill:#c02f54;}.cls-3{fill:#2b2960;}.cls-4{fill:#fff;}</style></defs><title>LOGOCOGNITIVO</title><path id="_Trazado_" data-name="&lt;Trazado&gt;" class="cls-1" d="M61.43,210.54S73.26,192.24,86,198.71s13.31,23.48,4.62,37.16c0,0,15.9,18.67-3.33,34.75,0,0,16.64,15.16,4.62,32.72a18.87,18.87,0,0,0-14.23,0s-3-4.62-10-2.77c0,0-4.25-17.37-22.37-13.67,0,0-1.29-5.55-2-8,0,0,5.73.37,11.65-4.81,0,0,7,9.8,17.75,3.51,0,0,5.55,8.5,8.32,7.76l1.48-3.7s-13.68-8.87-1.29-20.52L79,257.68s-8.13,5.18-7.21,15c0,0-7.39,7.58-14-2.4,0,0,2.59-3.14,1.11-9.43,0,0,10-3.88,5.73-18.49,0,0,14.42,1.48,15.9-14.79,0,0,6.84-.37,10-9.61L86,217s-5.55,13.12-17.56,1.85l-3.33,2.77a13.64,13.64,0,0,0,10.54,6.1s1.66,2.77-2.59,7.21c0,0-6.84,7-19.59-.74,0,0-11.46-6.84-6.1-19.78C47.38,214.42,54.22,206.66,61.43,210.54Z" transform="translate(-13.42 -195.6)"/><path class="cls-1" d="M42,225.7s-19.41.92-7.76,23.48c0,0-25.33,2.22-13.31,25.14,0,0,8.69-5.18,20.15,0,0,0,20.52-1.66,11.28-15.53,0,0,14.42-2.22,6.29-16.82C58.65,242,45.71,237.72,42,225.7Z" transform="translate(-13.42 -195.6)"/><path class="cls-1" d="M39.42,293.73c-.08.41,18.86-10.72,23.11,8.5,0,0-5.73,4.07-5,11.28,0,0-10,4.62-7.58,17.75,0,0,4.44,9.8,14.79,10.91,0,0-1.29,6.1,10.35,13.68l2-4.62s-18.3-11.28.92-21.44v-4.07s-11.83,1.85-13.49,11.46c0,0-10-.74-10.17-9.8,0,0-1.48-5.73,8.32-11.28-.54.31.2-7,.56-7.71,3.39-6.35,10.72-2.86,14.78.69,0,0,10.31-9.24,18.74,6.1,0,0,3.81,12.94-6.17,22.74,0,0,9.39,8.32,6.17,23.48,0,0-4,9.24-12.83,9.61,0,0-9.54-.55-13.92-6.84,0,0-9.56,3-15.84-.55,0,0-5.92-3.51-4.81-16.08,0,0-10.54,2.22-15.53-3.88,0,0-7.58-8.69-3.14-18.49a27.18,27.18,0,0,1-17-21.81c-2.22-16.82,7.95-24.22,7.95-24.22S44.41,268.22,39.42,293.73Z" transform="translate(-13.42 -195.6)"/><path class="cls-2" d="M114.85,239.75s12.2,3.14,13.49-8.87H132s2.59,3.51-3.88,10.35c0,0,5.92,7.95,13.86,4.07s3.7-14.42,3.7-14.42,11.28-4.62,7.39-14.23-16.82-6.29-16.82-6.29,0-7.39-11.65-13-22.55,4.34-22.55,4.34-5.55,5.55,9.24,21.44c0,0-23.11,12,.18,29.95,0,0-21.26,15.34-2.77,31.24a10,10,0,0,1,9.43-2.22s.37-16.08,12.76-17.19c0,0-2.59-4.9,3-14.56a15.44,15.44,0,0,1-10-7.07s-6.47,4.25-11.09,0Z" transform="translate(-13.42 -195.6)"/><path class="cls-2" d="M151.27,232.54s5.36-2.59,6.1-6.84c0,0,19.23,2.22,7.76,22.92,0,0,17.38,2.59,17.19,17.38,0,0,.55,11.65-12.57,12.76,0,0-3.51,11.28-14.6,9.8s-8.32-15.71-8.32-15.71-11.28-2.59-11.65-10.91,5.18-11.6,5.18-11.6S152.93,247.51,151.27,232.54Z" transform="translate(-13.42 -195.6)"/><path class="cls-2" d="M132.65,268.76s-10.91,2.77-10,14c0,0,21.63,6.84,8.32,29.76,0,0,15.34,10.72,2.22,29.39,0,0,4.59,4.07,2,12.39l-3.86-1.48s3-14-13.31-9.43l-1.66-4.07s9.43-2.59,13.12,0c0,0,12.39-15.53-5.55-25,0,0,17.56-19.59-4.44-27.54,0,0-7.76-2.22-15.16,6.84,0,0-8.32,17.75,6.84,29.39,0,0-20.52,10.35-1.48,29,0,0-3.88,9.24,4.07,16.08s19-4.25,19-4.25,9.8,5.18,16.82-1.66,2.4-15.34,2.4-15.34,10.54,4.07,17-5,.92-17,.92-17,14.79-4.81,16.08-17.75c0,0,5.18-15.16-5.92-26.8,0,0-4.07,3.14-7,2.4,0,0-5.92,12.2-16.64,10.17a13.38,13.38,0,0,0,.92,12.94s8.5-3.51,14.79,1.66L170,311.1s-17.23-9-16,12.8h-4.33A16.92,16.92,0,0,1,154,308.32s-3.77-2.4-1.92-16.27c0,0-10-2.42-9.8-15.26C142.26,276.8,137.82,276,132.65,268.76Z" transform="translate(-13.42 -195.6)"/><path class="cls-3" d="M371.28,303.91l7.85,8.11,1.27-10.89-5.21-6.33c-1.59-1.93,11.05-13.63,12.66-15,5.22-4.39,11-7.92,18.14-6,0,0,1.52-.25,4.56,4.31,0,0,.25,2,5.32,1.27,0,0,7.6-2.53,7.6,3.8,0,0,2.79,14.69-2.79,28.88l-2.28,26.6s9.37-3,23.31-26.35l1.52,4.81s-1.52,14.95-1,15.71a43.5,43.5,0,0,1-13.68,13.43L420.68,351s-4.31,1.67-4.31,7.8c0,0-2,24.37-4.05,28.93,0,0-3.29,16.72-17.23,22.55-6.91,2.89-15.88,2.13-21.61-2.94-7-6.17-5.7-15.74-2.21-23.41,0,0,5.83-13.43,13.93-21.53,0,0,10.39-12.92,15.45-16.21l1.27-8.61s-10.64,10.89-21.28,7.09c-7.56-2.7-12.54-9.64-13.87-17.41C365.39,319.08,368.82,311.57,371.28,303.91Z" transform="translate(-13.42 -195.6)"/><path class="cls-4" d="M401,363.22s-6.71,2.54-14.59,19.15a78.22,78.22,0,0,0-3.09,7.24c-.7,2-1.94,4.47-1.15,6.59a3.82,3.82,0,0,0,4.19,2.19c2.63-.35,4.87-2.35,6.4-4.39,5.29-7.08,6.6-15.67,7.44-24.21C400.32,369,400.48,363.43,401,363.22Z" transform="translate(-13.42 -195.6)"/><path class="cls-3" d="M448.8,282.13l-5.57,33.7L446,328.24l-3.8,4.56c-1,1.19,2.13,8.07,3,9.21,2.31,3,7.59,3.95,10.93,2.19,3.59-1.89,5.06-7,6.4-10.52a120.53,120.53,0,0,1,5.25-11.15c3-5.86,5.75-11.83,8.87-17.6,0,0,3.29-6.08,3,0,0,0-2.79,8.11-2.28,20.52a44.23,44.23,0,0,0,2.46,14,10.42,10.42,0,0,0,2.52,4.13c3.38,3,10.4.28,14-1l14.95-6.79s4.31,15.86,25.08,6.79c0,0,9.37-2.48,20.77-13.12V315.82a128.17,128.17,0,0,1-20.52,15.27c-6.14,3.53-7.46-4.36-6.94-8.39a151.5,151.5,0,0,1,7.67-32.32c1-2.85,6.21-16.31-.46-16.11-4.33.13-8.93-.28-12.48,2.83-3,2.61-3.45,7.24-4.45,10.85-2.41,9.63-7.41,20.72-7.41,30.91v1.27l-12.92,8.11s-7.87,5.07-9.38-5.32c-.71-4.88,1.19-11.44,1.83-16.28q1.15-8.71,2.56-17.38c1-5.85,1.75-11.72-4.71-14.65-6.07-2.75-11.12,2.08-14.11,7,0,0-9.12,14.44-10.39,20.77,0,0-1.77,6.84-4.05,2q1.14-8.68,2.35-17.36l-.28,1.71c.9-5.51,3.16-13.37-4.6-15C458.94,273.77,450.37,272.63,448.8,282.13Z" transform="translate(-13.42 -195.6)"/><path class="cls-3" d="M557.24,278.58s-5.07,32.68,5.32,56c0,0,7.85,18.49,28.38,6.59l16-8.36s1.52,12.3,10.39,12.36c0,0,14.95,2.7,32.18-13.44,0,0,2,16.46,13.68,13.71,0,0,7.09-1,18.49-24.79,0,0,4.31,20.27,29.13,10.89-.07,0,4.23,5.51,4.54,5.82,3.65,3.74,8.27,6.71,13.52,7.45,12.46,1.77,23.27-8.56,27.83-19.25A44.81,44.81,0,0,0,760.31,309a46.87,46.87,0,0,0-.85-9.79c-.42-2.18-1.41-9.83-3.34-11,0,0,14.95,9.37,26.1,22.55L784,300.62s-25.6-39.27-58.79-22c0,0-19.51,8.11-17,38,0,0-13.68,7.56-16.47-6.61-1.77-9,6.5-19.22,9.25-27.24.81-2.35,1.29-5.25-.39-7.08a6.2,6.2,0,0,0-2.65-1.54c-6.36-2.16-11.86-.45-14.83,5.48l-18.49,46.62s-2,3.29-.51-7.35c1.71-12,1.45-24.56,2.28-36.63a15,15,0,0,0-.18-4.74,5.09,5.09,0,0,0-2.86-3.59,7.55,7.55,0,0,0-3.8-.09l-6.45.95c-7,1-5.5,16.37-5.45,21.05l1.52,22s-12.41,13.93-22,13.17c0,0-4.56-1.77,0-20,2.09-8.35,3.9-16.81,6.69-25,1.58-4.62,3.93-12.15-3.64-12.31-4.78-.1-10.4,2.79-12.59,7.13-2.57,5.1-3.26,12.19-4.74,17.77-1.35,5.11-2.77,10.22-3.91,15.38-.17.75-.27,1.28-.3,1.55C608.41,318.1,585.61,333.3,577,328c0,0-9.88-.25-3.8-37.5l7.35-9.88,17-.3c3.54-.06,10.45,1.37,13.45-.86,1.45-1.08,1.82-3.07,2-4.87a5.9,5.9,0,0,0-.6-4c-1-1.38-2.87-1.72-4.55-1.62-6.47.37-13,.09-19.48,0,0,0,18.49-21,11.91-41.56,0,0-3.55-14.19-13.93-11.27,0,0-13.43,3.17-22.29,32.3l-4.81,18.24s-18.75-1.52-21,1.52c0,0-3,6.84,6.08,7.6Z" transform="translate(-13.42 -195.6)"/><path class="cls-3" d="M525.44,255.28a10.88,10.88,0,0,0,4,7.63,12.68,12.68,0,0,0,6.29,2.38,14.48,14.48,0,0,0,10.81-3.07c4.55-3.8,6.48-12.58,1.9-17.09-5.75-5.66-18.12-3.18-21.8,3.64A11.45,11.45,0,0,0,525.44,255.28Z" transform="translate(-13.42 -195.6)"/><path class="cls-3" d="M621,255.28a10.88,10.88,0,0,0,4,7.63,12.68,12.68,0,0,0,6.29,2.38,14.48,14.48,0,0,0,10.81-3.07c4.55-3.8,6.48-12.58,1.9-17.09-5.75-5.66-18.12-3.18-21.8,3.64A11.45,11.45,0,0,0,621,255.28Z" transform="translate(-13.42 -195.6)"/><path class="cls-4" d="M407,287.79c0-.39-2.56-.27-2.71-.25-3,.36-5.55,2.65-7.52,4.69-6.89,7.17-12.36,17-12.6,27.12-.1,4,.37,8.43,3.54,11.22,3.4,3,6.76,1,9.16-2.27C396.89,328.3,402.72,322.27,407,287.79Z" transform="translate(-13.42 -195.6)"/><path class="cls-3" d="M251.7,275.29s-4.05-2.79-5.57,2v8.11s.76,5.07,4.05,5.32c0,0,8.87,4.05,21.79-2,0,0,16.47-7.35,23.05-23.05,0,0,10.13-16.72,1.52-34.46-5.57-11.48-19.91-16.63-31.77-14.71-26.14,4.23-44.34,26.31-55.79,48.65-1.66,3.23-3.3,6.52-4.66,9.89,0,0-16.47,40.79,0,64.6,18.74,27.11,56.54,22,81.13,6.29a81.87,81.87,0,0,0,8.56-6.29l12.16-10.89s5.83,13.93,16.72,15.71c0,0,12.67,4.56,24.58-9.12,0,0,11.15-12.67,9.37-30.66,0,0-1.52-13-4.81-17.13,0,0,16.21,10.54,19.25,16.37l3.91-9.12s-10.75-17-34.82-20.77c0,0-19.51-2.79-31.92,17.73a53.91,53.91,0,0,0-4.31,20l-23.31,16.72s-15.45,10.64-27.11,12.67c0,0-19.25,5.83-29.9-6.59,0,0-9.12-8.36-5.32-34.71,0,0,1.52-16,12.92-37.24,0,0,7.35-13.17,16.47-21.28,0,0,12.16-12.92,27.36-8.11,0,0,12.16,4.56,8.61,20C280.5,267.92,266.74,278.4,251.7,275.29Z" transform="translate(-13.42 -195.6)"/><path class="cls-4" d="M325,296.07c3.87-6.25,11.57-12,15.94-3.11a38.77,38.77,0,0,1-1.52,28.38s-4.3,10.38-11.39,9.38C313.82,328.71,320.16,303.81,325,296.07Z" transform="translate(-13.42 -195.6)"/><path class="cls-4" d="M572,267.5H577c1.32,0,5.29-8.63,5.85-9.67,3.24-6,6-12.31,7.12-19.09,1-6.12-3.85-9-7.39-3.42C582.6,235.32,578,241.91,572,267.5Z" transform="translate(-13.42 -195.6)"/><path class="cls-4" d="M729.08,296.71c3.87-6.25,11.57-12,15.94-3.11A38.77,38.77,0,0,1,743.5,322s-4.3,10.38-11.39,9.38C717.95,329.34,724.28,304.44,729.08,296.71Z" transform="translate(-13.42 -195.6)"/></svg>